PathFileType	4	(X/Y/Z)	8_coords_data.trc
DataRate	CameraRate	NumFrames	NumMarkers	Units	OrigDataRate	OrigDataStartFrame	OrigNumFrames
30.0	30.0	7	21	m	30.0	23	55
Frame#	Time	THUMB_TIP	THUMB_IP	THUMB_MCP	THUMB_CMC	INDEX_TIP	INDEX_DIP	INDEX_PIP	INDEX_MCP	MIDDLE_TIP	MIDDLE_DIP	MIDDLE_PIP	MIDDLE_MCP	RING_TIP	RING_DIP	RING_PIP	RING_MCP	PINKY_TIP	PINKY_DIP	PINKY_PIP	PINKY_MCP	WRIST
X1	Y1	Z1	X2	Y2	Z2	X3	Y3	Z3	X4	Y4	Z4	X5	Y5	Z5	X6	Y6	Z6	X7	Y7	Z7	X8	Y8	Z8	X9	Y9	Z9	X10	Y10	Z10	X11	Y11	Z11	X12	Y12	Z12	X13	Y13	Z13	X14	Y14	Z14	X15	Y15	Z15	X16	Y16	Z16	X17	Y17	Z17	X18	Y18	Z18	X19	Y19	Z19	X20	Y20	Z20	X21	Y21	Z21
22	0.7333333333333333	0.020566900253295897	-0.08892179870605468	1.0516300048828124	0.007223410129547119	-0.06605670166015624	1.055260009765625	-0.008355460166931152	-0.04251309967041016	1.0581700439453126	-0.02063960075378418	-0.013059100151062012	1.0628699951171876	0.01663920021057129	-0.06464959716796875	0.9467210083007812	0.003607620000839233	-0.0567333984375	0.9614860229492187	-0.007848919868469239	-0.047542900085449216	0.9779710083007812	-0.014713500022888184	-0.02653770065307617	1.00875	0.01445259952545166	-0.004946800231933593	0.9223579711914063	3.6136198788881e-05	-0.006247829914093017	0.9416439819335938	-0.01539109992980957	-0.007000289916992187	0.96493701171875	-0.02078380012512207	-0.006325819969177246	1.0033499755859374	0.023446699142456055	0.02770439910888672	0.9386740112304688	0.008127479553222657	0.024391000747680663	0.95597900390625	-0.008033490180969239	0.02045770072937012	0.9756710205078125	-0.01663170051574707	0.01278969955444336	1.00677001953125	0.03728919982910156	0.058731998443603516	0.99460302734375	0.021880699157714845	0.049420799255371094	1.002010009765625	0.007664899826049804	0.04112279891967773	1.0078800048828125	-0.011133500099182129	0.027353700637817384	1.0171199951171874	-0.04905749893188477	0.012681300163269044	1.0718900146484376
23	0.7666666666666667	0.020563199996948243	-0.08884320068359375	1.05175	0.007387509822845459	-0.06579900360107421	1.0551099853515624	-0.008177160263061523	-0.0422504997253418	1.058010009765625	-0.020515199661254882	-0.012736499786376953	1.0626800537109375	0.01662739944458008	-0.0644113998413086	0.9464619750976563	0.0036028800010681154	-0.05649340057373047	0.9612260131835938	-0.007838980197906494	-0.04733010101318359	0.977791015625	-0.014736599922180176	-0.026322200775146486	1.0085800170898438	0.014240699768066406	-0.004839320182800293	0.9220040283203125	-0.00014379699528217302	-0.006115240097045898	0.9413579711914063	-0.015512299537658692	-0.0068540902137756345	0.9646909790039062	-0.020927499771118165	-0.006143479824066162	1.0030499877929688	0.023119600296020507	0.027750200271606445	0.9382540283203125	0.007892549991607666	0.024458799362182617	0.955551025390625	-0.008274840354919434	0.020582799911499024	0.9754840087890625	-0.0167322998046875	0.012996800422668457	1.00652001953125	0.037104801177978514	0.05895389938354492	0.9940440063476562	0.021724100112915038	0.049645999908447265	1.001530029296875	0.007534570217132568	0.041343601226806644	1.007469970703125	-0.011196800231933594	0.027587499618530274	1.0168099975585938	-0.04904410171508789	0.012998499870300294	1.0716800537109374
24	0.8	0.020562400817871095	-0.08875740051269532	1.0515799560546875	0.007388189792633056	-0.06570189666748047	1.0549599609375	-0.008158909797668456	-0.04218130111694336	1.0578699951171875	-0.020468299865722656	-0.012647199630737304	1.0625799560546876	0.01717110061645508	-0.06406659698486328	0.9465640258789062	0.003982330083847046	-0.05625899887084961	0.9612340087890625	-0.0076171598434448245	-0.047177101135253904	0.9776849975585937	-0.014599800109863281	-0.026194299697875977	1.008489990234375	0.01472189998626709	-0.004721499919891357	0.9220889892578125	0.000220387995243072	-0.006019090175628662	0.94135400390625	-0.015277500152587891	-0.006764679908752441	0.9646010131835937	-0.020851699829101563	-0.006010000228881836	1.0029500122070312	0.023464000701904297	0.027687400817871095	0.9382230224609375	0.008127960205078125	0.024452400207519532	0.9554849853515625	-0.008109140396118163	0.020631099700927736	0.9753599853515625	-0.016604400634765624	0.013125800132751464	1.0063699951171876	0.03723720169067383	0.059051498413085934	0.9940009765625	0.021855300903320312	0.049753501892089845	1.0014299926757813	0.0076510200500488285	0.041455299377441406	1.0073499755859374	-0.011079999923706054	0.027723199844360353	1.0167000122070313	-0.049000701904296874	0.013103699684143067	1.071530029296875
25	0.8333333333333334	0.020811700820922853	-0.08847160339355468	1.051	0.007538849830627441	-0.06551399993896484	1.05456005859375	-0.008016079902648925	-0.04205279922485351	1.0576400146484375	-0.020339899063110352	-0.012558899879455566	1.0623900146484375	0.01739550018310547	-0.06351520156860352	0.9463070068359375	0.004080039978027344	-0.05585039901733398	0.960948974609375	-0.007555850028991699	-0.046873600006103515	0.9774660034179687	-0.014491700172424316	-0.026019899368286133	1.0082999877929688	0.014366299629211425	-0.004378600120544434	0.9217739868164062	-1.4558400027453001e-05	-0.005739779949188233	0.9410700073242187	-0.015371700286865235	-0.006508019924163819	0.96435302734375	-0.020753799438476564	-0.005818739891052246	1.00277001953125	0.023217399597167968	0.02794420051574707	0.9380339965820312	0.007952509880065918	0.02466349983215332	0.955291015625	-0.008194350242614746	0.020799699783325194	0.9751840209960938	-0.01656290054321289	0.013279899597167969	1.006219970703125	0.03713529968261719	0.059299999237060544	0.9937689819335938	0.02176759910583496	0.04998130035400391	1.001280029296875	0.007630440235137939	0.04167660140991211	1.00722998046875	-0.011047200202941894	0.027868400573730467	1.0165599975585937	-0.04887519836425781	0.013135199546813964	1.0714300537109376
26	0.8666666666666667	0.020465700149536133	-0.0885509033203125	1.0506300048828126	0.007286240100860595	-0.06554609680175781	1.054219970703125	-0.008113940238952637	-0.041995098114013675	1.0573199462890626	-0.020230600357055664	-0.012482000350952148	1.062030029296875	0.017337600708007814	-0.06342399978637696	0.946093994140625	0.003989929914474487	-0.05578499984741211	0.9606740112304688	-0.007691860198974609	-0.0468202018737793	0.9771790161132813	-0.014592399597167969	-0.026022899627685548	1.007989990234375	0.014151900291442872	-0.004404489994049072	0.9214169921875	-0.00018531900644302301	-0.0057210798263549805	0.9407490234375	-0.015481399536132813	-0.006485779762268066	0.963989013671875	-0.02079319953918457	-0.005813610076904297	1.0024500122070312	0.023208099365234373	0.027850400924682616	0.9377360229492188	0.00794556999206543	0.02462030029296875	0.9550180053710937	-0.008207289695739747	0.020796300888061524	0.9749390258789062	-0.016528600692749022	0.013319999694824218	1.0059199829101562	0.03727880096435547	0.059141101837158205	0.9934080200195312	0.021885400772094728	0.04989030075073242	1.0009099731445312	0.00772613000869751	0.04163859939575195	1.0068599853515625	-0.010953599929809571	0.027899999618530274	1.01625	-0.04883810043334961	0.013225799560546874	1.0712099609375
27	0.9	0.020610300064086914	-0.08854090118408203	1.0505999755859374	0.0074826798439025875	-0.06553510284423827	1.0540999755859375	-0.007966340065002442	-0.0420442008972168	1.0571800537109375	-0.02033919906616211	-0.012538800239562988	1.061949951171875	0.017793899536132814	-0.06334379959106445	0.9460189819335938	0.004414539813995361	-0.055759498596191406	0.9605700073242187	-0.0073529500961303715	-0.046809200286865235	0.9770250244140625	-0.014377400398254395	-0.026029399871826172	1.0078400268554688	0.014638899803161621	-0.00426993989944458	0.9214199829101563	0.00024005499482154802	-0.005641280174255371	0.9407009887695312	-0.015156200408935547	-0.006453629970550537	0.9640040283203125	-0.020394800186157226	-0.005817790031433106	1.002280029296875	0.023741500854492188	0.02797610092163086	0.9378660278320312	0.008342599868774414	0.024691699981689453	0.9550980224609374	-0.007846399784088135	0.02081719970703125	0.974781982421875	-0.016415800094604492	0.013283699989318847	1.0058800048828125	0.037431900024414065	0.059128200531005856	0.9935590209960937	0.022013599395751954	0.04984659957885742	1.00102001953125	0.007827030181884766	0.0415796012878418	1.0069299926757813	-0.010898099899291993	0.027867900848388673	1.016219970703125	-0.04886320114135742	0.013090800285339356	1.07097998046875
28	0.9333333333333333	0.02059779930114746	-0.08881069946289062	1.0508499755859375	0.0075880298614501955	-0.06570449829101563	1.0540999755859375	-0.007917349815368652	-0.04217530059814453	1.0571199951171875	-0.020247499465942384	-0.012644700050354004	1.0618599853515625	0.017731399536132814	-0.06364619827270508	0.9459710083007813	0.004376269817352295	-0.056035598754882815	0.960489990234375	-0.007343019962310791	-0.047051101684570315	0.9769979858398438	-0.014335700035095215	-0.02622879981994629	1.007739990234375	0.014688799858093262	-0.00462412977218628	0.92135400390625	0.000284314006567001	-0.005958449840545654	0.9406119995117187	-0.015103599548339845	-0.006738800048828125	0.963864013671875	-0.020546699523925783	-0.006058370113372803	1.002239990234375	0.023954900741577148	0.027552799224853517	0.9378820190429688	0.008547550201416015	0.024351999282836913	0.9549769897460938	-0.007819950103759766	0.020544099807739257	0.974760986328125	-0.0163474006652832	0.013068099975585938	1.005760009765625	0.03759799957275391	0.058700401306152346	0.9934130249023437	0.022130199432373047	0.049486801147460936	1.0008900146484374	0.007921440124511719	0.04125289916992188	1.0068200073242188	-0.010845100402832031	0.027615299224853517	1.0161300048828126	-0.049006301879882815	0.013115900039672852	1.0711500244140626
